<svg width="165" height="60" viewBox="0 0 165 60" fill="none" xmlns="http://www.w3.org/2000/svg">
<g clip-path="url(#clip0_13_122)">
<path d="M15.3978 0.000137329V15.0139C17.4892 13.411 19.9883 12.4303 22.6095 12.184V0.000137329H15.3978ZM15.3978 37.2997V52.3153H22.6095V40.1296C19.9883 39.8833 17.4892 38.9026 15.3978 37.2997Z" fill="white"/>
<path d="M25.0483 0.000137329V12.1435C27.658 12.3569 30.1561 13.2983 32.26 14.861V7.2279H44.6415C47.2393 7.2279 49.6777 7.72792 51.9598 8.72578C54.2662 9.72364 56.2702 11.0861 57.9696 12.8141C59.6933 14.5177 61.0524 16.5248 62.0478 18.8369C63.0432 21.1247 63.5419 23.5711 63.5419 26.1752C63.5419 28.7794 63.0432 31.2383 62.0478 33.5504C61.0524 35.8382 59.6933 37.8452 57.9696 39.5732C56.2702 41.2769 54.2662 42.6287 51.9598 43.6265C49.6777 44.6 47.2393 45.0857 44.6415 45.0857H32.26V37.4084C30.1578 38.9764 27.6595 39.9229 25.0483 40.1407V52.3153H44.6415C47.045 52.3153 49.3499 52.0099 51.5592 51.4015C53.7927 50.7687 55.8697 49.8938 57.7877 48.7742C59.7299 47.6303 61.4897 46.266 63.0678 44.6841C64.6701 43.0778 66.0417 41.3135 67.1827 39.3908C68.3238 37.4438 69.1984 35.3635 69.8053 33.1488C70.4365 30.9097 70.7518 28.5847 70.7518 26.1752C70.7518 23.7658 70.4365 21.4533 69.8053 19.2386C69.1984 16.9995 68.3238 14.9192 67.1827 12.9965C66.0417 11.0494 64.6701 9.28522 63.0678 7.70325C61.4897 6.09693 59.7299 4.72198 57.7877 3.57809C55.8697 2.43421 53.7927 1.55743 51.5592 0.948978C49.3499 0.316189 47.045 0.000137329 44.6415 0.000137329H25.0483Z" fill="white"/>
<path d="M73.1925 0.000137329V52.3153H94.7063L97.8509 45.0857H80.4024V29.5339H100.687V22.3062H80.4024V7.2279H105.458V0.000137329H73.1925Z" fill="white"/>
<path d="M118.895 0H125.923L148.683 52.3147H144.532C143.391 52.3147 142.359 52.0226 141.437 51.4385C140.514 50.8301 139.822 50.0026 139.361 48.956L135.719 40.6324H109.062L105.457 48.956C105.02 49.9782 104.328 50.7936 103.381 51.402C102.459 52.0105 101.427 52.3147 100.286 52.3147H96.1342L118.895 0ZM121.735 11.5362L112.23 33.404H132.587L123.082 11.5362C122.694 10.6844 122.463 9.65005 122.391 8.43314C122.342 9.04159 122.257 9.60137 122.136 10.1125C122.039 10.6236 121.905 11.0982 121.735 11.5362Z" fill="white"/>
<path d="M23.9015 13.9324C20.6675 13.9326 17.566 15.2206 15.2792 17.5131C12.9924 19.8056 11.7076 22.9148 11.7074 26.1568C11.7072 27.7623 12.0225 29.352 12.6353 30.8353C13.248 32.3186 14.1462 33.6664 15.2785 34.8017C16.4109 35.937 17.7552 36.8376 19.2347 37.4521C20.7142 38.0666 22.3 38.3829 23.9015 38.383C25.5031 38.3832 27.0891 38.067 28.5688 37.4526C30.0486 36.8383 31.3931 35.9377 32.5256 34.8024C33.6581 33.667 34.5565 32.3191 35.1693 30.8357C35.7822 29.3523 36.0975 27.7624 36.0974 26.1568C36.0973 24.5513 35.7818 22.9616 35.1688 21.4784C34.5558 19.9952 33.6575 18.6476 32.525 17.5124C31.3925 16.3773 30.048 15.4769 28.5684 14.8626C27.0888 14.2484 25.5029 13.9323 23.9015 13.9324ZM24.0632 14.7504C24.1903 14.7454 24.4118 14.7539 24.7855 14.7947C24.9574 14.8134 25.1884 14.8403 25.4636 14.8831C26.1984 14.9975 27.5569 15.2763 29.0346 16.0549C30.3321 16.7385 31.7418 17.8197 32.8334 19.5057C33.9957 21.3009 34.6387 23.541 34.6474 26.1568C34.6485 26.4841 34.6391 26.7987 34.6216 27.1001C34.4845 29.4528 33.7985 31.3358 32.826 32.7913C31.6918 34.489 30.2381 35.5068 28.9794 36.1279C27.8931 36.664 26.8739 36.9437 26.162 37.1191C25.9078 37.1818 25.6672 37.2346 25.4434 37.2776C24.28 37.5012 23.904 37.4554 23.9015 37.4268C23.8989 37.3982 24.2741 37.368 25.3662 36.9865C25.576 36.9132 25.8001 36.8271 26.0334 36.7285C26.6992 36.4472 27.5701 35.9736 28.4428 35.2749C29.4525 34.4664 30.4715 33.3509 31.2087 31.8425C31.8337 30.5637 32.2707 28.9829 32.3721 26.9767C32.3853 26.7166 32.393 26.443 32.3942 26.1568C32.4027 23.8837 31.9861 22.0175 31.2014 20.4582C30.4577 18.9804 29.4356 17.8876 28.3877 17.0682C27.2077 16.1455 26.0093 15.5862 25.346 15.3105C25.097 15.2071 24.8834 15.1273 24.723 15.0729C24.0282 14.8369 23.8991 14.8091 23.9015 14.7855C23.9026 14.7736 23.9361 14.7555 24.0632 14.7504Z" fill="white"/>
<path d="M0.000579834 55.4234V56.3668H164.082V55.4234H0.000579834Z" fill="white"/>
<path d="M0.000579834 57.6417V60H164.082V57.6417H0.000579834Z" fill="white"/>
</g>
<defs>
<clipPath id="clip0_13_122">
<rect width="164.082" height="60" fill="white"/>
</clipPath>
</defs>
</svg>
