<svg width="52" height="48" viewBox="0 0 52 48" fill="none" xmlns="http://www.w3.org/2000/svg">
<path d="M33.7586 17.1429C35.8297 17.1429 37.5086 18.8218 37.5086 20.8929V35.3549C37.5086 41.8652 32.231 47.1429 25.7207 47.1429C19.2104 47.1429 13.9327 41.8652 13.9327 35.3549V20.8929C13.9327 18.8218 15.6116 17.1429 17.6827 17.1429H33.7586ZM3.75 17.1429L13.1402 17.1387C12.3905 18.0449 11.9066 19.1792 11.8084 20.422L11.7898 20.8929V35.3549C11.7898 37.7836 12.4114 40.0671 13.504 42.0551C12.3233 42.5705 11.0179 42.8571 9.64551 42.8571C4.31844 42.8571 0 38.5387 0 33.2116V20.8929C0 18.8218 1.67893 17.1429 3.75 17.1429ZM38.3011 17.1387L47.6786 17.1429C49.7496 17.1429 51.4286 18.8218 51.4286 20.8929V33.2143C51.4286 38.5399 47.1113 42.8571 41.7857 42.8571C40.4163 42.8571 39.1135 42.5717 37.9337 42.057L38.0531 41.8401C38.9717 40.0968 39.5315 38.1351 39.6343 36.0532L39.6515 35.3549V20.8929C39.6515 19.4663 39.1446 18.1582 38.3011 17.1387ZM25.7143 0C29.8564 0 33.2143 3.35786 33.2143 7.5C33.2143 11.6421 29.8564 15 25.7143 15C21.5722 15 18.2143 11.6421 18.2143 7.5C18.2143 3.35786 21.5722 0 25.7143 0ZM42.8635 2.14286C46.4139 2.14286 49.2921 5.02103 49.2921 8.57143C49.2921 12.1218 46.4139 15 42.8635 15C39.3131 15 36.435 12.1218 36.435 8.57143C36.435 5.02103 39.3131 2.14286 42.8635 2.14286ZM8.56503 2.14286C12.1154 2.14286 14.9936 5.02103 14.9936 8.57143C14.9936 12.1218 12.1154 15 8.56503 15C5.01463 15 2.13646 12.1218 2.13646 8.57143C2.13646 5.02103 5.01463 2.14286 8.56503 2.14286Z" fill="url(#paint0_linear_16_660)"/>
<defs>
<linearGradient id="paint0_linear_16_660" x1="25.7143" y1="0" x2="25.7143" y2="47.1429" gradientUnits="userSpaceOnUse">
<stop offset="0.227613" stop-color="#E47727"/>
<stop offset="1" stop-color="#FCA947"/>
</linearGradient>
</defs>
</svg>
